<mxfile host="app.diagrams.net" agent="Mozilla/5.0 (Windows NT 10.0; Win64; x64) AppleWebKit/537.36 (KHTML, like Gecko) Chrome/116.0.0.0 Safari/537.36" version="27.0.9">
  <diagram name="第 1 页" id="5nD0Npv66BOHkbaL_8IZ">
    <mxGraphModel dx="1251" dy="678" grid="1" gridSize="10" guides="1" tooltips="1" connect="1" arrows="1" fold="1" page="1" pageScale="1" pageWidth="827" pageHeight="1169" math="0" shadow="0">
      <root>
        <mxCell id="0" />
        <mxCell id="1" parent="0" />
        <mxCell id="6JTWCHrBCL2EqqVO5LBY-3" value="" style="edgeStyle=orthogonalEdgeStyle;rounded=0;orthogonalLoop=1;jettySize=auto;html=1;" edge="1" parent="1" source="6JTWCHrBCL2EqqVO5LBY-1" target="6JTWCHrBCL2EqqVO5LBY-2">
          <mxGeometry relative="1" as="geometry" />
        </mxCell>
        <mxCell id="6JTWCHrBCL2EqqVO5LBY-1" value="开始" style="ellipse;whiteSpace=wrap;html=1;" vertex="1" parent="1">
          <mxGeometry x="340" y="60" width="80" height="50" as="geometry" />
        </mxCell>
        <mxCell id="6JTWCHrBCL2EqqVO5LBY-2" value="资源加载 - 版本维度&lt;br&gt;&lt;br style=&quot;text-wrap: nowrap;&quot;&gt;&lt;span style=&quot;text-align: left; float: none; display: inline !important; color: rgb(0, 0, 0); background-color: rgb(236, 236, 236);&quot;&gt;version_incsetup version_incsetup_file&lt;/span&gt;" style="whiteSpace=wrap;html=1;" vertex="1" parent="1">
          <mxGeometry x="300" y="190" width="160" height="95" as="geometry" />
        </mxCell>
      </root>
    </mxGraphModel>
  </diagram>
</mxfile>
